<?xml version="1.0" encoding="UTF-8" standalone="no"?>
<!DOCTYPE svg PUBLIC "-//W3C//DTD SVG 1.1//EN" "http://www.w3.org/Graphics/SVG/1.1/DTD/svg11.dtd">
<svg width="100%" height="100%" viewBox="0 0 330 440" version="1.1" xmlns="http://www.w3.org/2000/svg" xmlns:xlink="http://www.w3.org/1999/xlink" xml:space="preserve" xmlns:serif="http://www.serif.com/" style="fill-rule:evenodd;clip-rule:evenodd;">
    <g transform="matrix(0.586942,0,0,-0.586942,-3.77899,-38.1151)">
        <rect x="8.5" y="-423" width="109" height="31" style="fill:rgb(84,143,158);stroke:rgb(84,143,158);stroke-width:1px;"/>
    </g>
    <g transform="matrix(0.586942,0,0,-0.586942,-3.77899,-1.7247)">
        <rect x="8.5" y="-392" width="109" height="31" style="fill:rgb(246,248,248);stroke:rgb(84,143,158);stroke-width:1px;"/>
    </g>
    <g transform="matrix(0.586942,0,0,-0.586942,-3.77899,-419.627)">
        <rect x="369.555" y="-748" width="196" height="31" style="fill:rgb(84,143,158);stroke:rgb(84,143,158);stroke-width:1px;"/>
    </g>
    <g transform="matrix(0.586942,0,0,-0.586942,-3.77899,-383.237)">
        <rect x="369.555" y="-717" width="196" height="31" style="fill:rgb(246,248,248);stroke:rgb(84,143,158);stroke-width:1px;"/>
    </g>
    <g transform="matrix(0.586942,0,0,-0.586942,-3.77899,-346.846)">
        <rect x="369.555" y="-686" width="196" height="31" style="fill:rgb(246,248,248);stroke:rgb(84,143,158);stroke-width:1px;"/>
    </g>
    <g transform="matrix(0.586942,0,0,-0.586942,-3.77899,-310.456)">
        <rect x="369.555" y="-655" width="196" height="31" style="fill:rgb(246,248,248);stroke:rgb(84,143,158);stroke-width:1px;"/>
    </g>
    <g transform="matrix(0.586942,0,0,-0.586942,-3.77899,-274.066)">
        <rect x="369.555" y="-624" width="196" height="31" style="fill:rgb(246,248,248);stroke:rgb(84,143,158);stroke-width:1px;"/>
    </g>
    <g transform="matrix(0.586942,0,0,-0.586942,-3.77899,-237.675)">
        <rect x="369.555" y="-593" width="196" height="31" style="fill:rgb(246,248,248);stroke:rgb(84,143,158);stroke-width:1px;"/>
    </g>
    <g transform="matrix(0.586942,0,0,-0.586942,-3.77899,-201.285)">
        <rect x="369.555" y="-562" width="196" height="31" style="fill:rgb(246,248,248);stroke:rgb(84,143,158);stroke-width:1px;"/>
    </g>
    <g transform="matrix(0.586942,0,0,-0.586942,-3.77899,-164.894)">
        <rect x="369.555" y="-531" width="196" height="31" style="fill:rgb(246,248,248);stroke:rgb(84,143,158);stroke-width:1px;"/>
    </g>
    <g transform="matrix(0.586942,0,0,-0.586942,-3.77899,-128.504)">
        <rect x="369.555" y="-500" width="196" height="31" style="fill:rgb(246,248,248);stroke:rgb(84,143,158);stroke-width:1px;"/>
    </g>
    <g transform="matrix(0.586942,0,0,-0.586942,-3.77899,-92.1137)">
        <rect x="369.555" y="-469" width="196" height="31" style="fill:rgb(246,248,248);stroke:rgb(84,143,158);stroke-width:1px;"/>
    </g>
    <g transform="matrix(0.586942,0,0,-0.586942,-3.77899,-55.7233)">
        <rect x="369.555" y="-438" width="196" height="31" style="fill:rgb(246,248,248);stroke:rgb(84,143,158);stroke-width:1px;"/>
    </g>
    <g transform="matrix(0.586942,0,0,-0.586942,-3.77899,-19.3329)">
        <rect x="369.555" y="-407" width="196" height="31" style="fill:rgb(246,248,248);stroke:rgb(84,143,158);stroke-width:1px;"/>
    </g>
    <g transform="matrix(0.586942,0,0,-0.586942,-3.77899,17.0574)">
        <rect x="369.555" y="-376" width="196" height="31" style="fill:rgb(246,248,248);stroke:rgb(84,143,158);stroke-width:1px;"/>
    </g>
    <g transform="matrix(0.586942,0,0,-0.586942,-3.77899,53.4478)">
        <rect x="369.555" y="-345" width="196" height="31" style="fill:rgb(246,248,248);stroke:rgb(84,143,158);stroke-width:1px;"/>
    </g>
    <g transform="matrix(0.586942,0,0,-0.586942,-3.77899,89.8382)">
        <rect x="369.555" y="-314" width="196" height="31" style="fill:rgb(246,248,248);stroke:rgb(84,143,158);stroke-width:1px;"/>
    </g>
    <g transform="matrix(0.586942,0,0,-0.586942,-3.77899,126.229)">
        <rect x="369.555" y="-283" width="196" height="31" style="fill:rgb(246,248,248);stroke:rgb(84,143,158);stroke-width:1px;"/>
    </g>
    <g transform="matrix(0.586942,0,0,-0.586942,-3.77899,162.619)">
        <rect x="369.555" y="-252" width="196" height="31" style="fill:rgb(246,248,248);stroke:rgb(84,143,158);stroke-width:1px;"/>
    </g>
    <g transform="matrix(0.586942,0,0,-0.586942,-3.77899,199.009)">
        <rect x="369.555" y="-221" width="196" height="31" style="fill:rgb(246,248,248);stroke:rgb(84,143,158);stroke-width:1px;"/>
    </g>
    <g transform="matrix(0.586942,0,0,-0.586942,-3.77899,235.4)">
        <rect x="369.555" y="-190" width="196" height="31" style="fill:rgb(246,248,248);stroke:rgb(84,143,158);stroke-width:1px;"/>
    </g>
    <g transform="matrix(0.586942,0,0,-0.586942,-3.77899,271.79)">
        <rect x="369.555" y="-159" width="196" height="31" style="fill:rgb(246,248,248);stroke:rgb(84,143,158);stroke-width:1px;"/>
    </g>
    <g transform="matrix(0.586942,0,0,-0.586942,-3.77899,308.181)">
        <rect x="369.555" y="-128" width="196" height="31" style="fill:rgb(246,248,248);stroke:rgb(84,143,158);stroke-width:1px;"/>
    </g>
    <g transform="matrix(0.586942,0,0,-0.586942,-3.77899,344.571)">
        <rect x="369.555" y="-97" width="196" height="31" style="fill:rgb(246,248,248);stroke:rgb(84,143,158);stroke-width:1px;"/>
    </g>
    <g transform="matrix(0.586942,0,0,-0.586942,-3.77899,380.961)">
        <rect x="369.555" y="-66" width="196" height="31" style="fill:rgb(246,248,248);stroke:rgb(84,143,158);stroke-width:1px;"/>
    </g>
    <g transform="matrix(0.586942,0,0,-0.586942,-3.77899,417.352)">
        <rect x="369.555" y="-35" width="196" height="31" style="fill:rgb(246,248,248);stroke:rgb(84,143,158);stroke-width:1px;"/>
    </g>
    <g transform="matrix(0.586942,0,0,-0.586942,-3.77899,-1.13776)">
        <path d="M117.5,-376L351.142,-376" style="fill:none;fill-rule:nonzero;stroke:rgb(56,97,107);stroke-width:2px;"/>
    </g>
    <g transform="matrix(0.586942,0,0,-0.586942,-3.77899,-1.13786)">
        <path d="M351.472,-372.5L361.472,-376L351.472,-379.5L351.472,-372.5Z" style="fill:rgb(48,82,90);fill-rule:nonzero;stroke:rgb(48,82,90);stroke-width:1px;"/>
    </g>
    <g transform="matrix(1,0,0,1,-164.129,-63.5506)">
        <text x="168.268px" y="267.96px" style="font-family:'ArialMT', 'Arial', sans-serif;font-size:10.562px;fill:white;">Subscription</text>
        <text x="168.86px" y="285.098px" style="font-family:'ArialMT', 'Arial', sans-serif;font-size:9.388px;">log</text>
        <text x="188.208px" y="285.098px" style="font-family:'ArialMT', 'Arial', sans-serif;font-size:9.388px;fill:rgb(66,160,221);">AuthLog</text>
        <text x="223.182px" y="285.098px" style="font-family:'ArialMT', 'Arial', sans-serif;font-size:9.388px;">!</text>
    </g>
    <g transform="matrix(1,0,0,1,-164.129,-63.5506)">
        <text x="415.104px" y="77.204px" style="font-family:'ArialMT', 'Arial', sans-serif;font-size:10.562px;fill:white;">AuthLog</text>
        <text x="380.779px" y="94.342px" style="font-family:'ArialMT', 'Arial', sans-serif;font-size:9.388px;">sshdHost</text>
    </g>
    <g transform="matrix(1,0,0,1,-164.129,-63.5506)">
        <text x="461.642px" y="94.343px" style="font-family:'ArialMT', 'Arial', sans-serif;font-size:9.388px;">String!</text>
    </g>
    <g transform="matrix(1,0,0,1,-164.129,-63.5506)">
        <text x="380.779px" y="112.538px" style="font-family:'ArialMT', 'Arial', sans-serif;font-size:9.388px;">result</text>
    </g>
    <g transform="matrix(1,0,0,1,-164.129,-63.5506)">
        <text x="461.642px" y="112.538px" style="font-family:'ArialMT', 'Arial', sans-serif;font-size:9.388px;">String!</text>
    </g>
    <g transform="matrix(1,0,0,1,-164.129,-63.5506)">
        <text x="380.779px" y="130.733px" style="font-family:'ArialMT', 'Arial', sans-serif;font-size:9.388px;">user</text>
    </g>
    <g transform="matrix(1,0,0,1,-164.129,-63.5506)">
        <text x="461.642px" y="130.733px" style="font-family:'ArialMT', 'Arial', sans-serif;font-size:9.388px;">String!</text>
    </g>
    <g transform="matrix(1,0,0,1,-164.129,-63.5506)">
        <text x="380.779px" y="148.928px" style="font-family:'ArialMT', 'Arial', sans-serif;font-size:9.388px;">password</text>
    </g>
    <g transform="matrix(1,0,0,1,-164.129,-63.5506)">
        <text x="464.252px" y="149.515px" style="font-family:'ArialMT', 'Arial', sans-serif;font-size:9.388px;">String</text>
    </g>
    <g transform="matrix(1,0,0,1,-164.129,-63.5506)">
        <text x="380.779px" y="167.123px" style="font-family:'ArialMT', 'Arial', sans-serif;font-size:9.388px;">ip</text>
    </g>
    <g transform="matrix(1,0,0,1,-164.129,-63.5506)">
        <text x="461.642px" y="167.123px" style="font-family:'ArialMT', 'Arial', sans-serif;font-size:9.388px;">String!</text>
    </g>
    <g transform="matrix(1,0,0,1,-164.129,-63.5506)">
        <text x="380.779px" y="185.318px" style="font-family:'ArialMT', 'Arial', sans-serif;font-size:9.388px;">port</text>
    </g>
    <g transform="matrix(1,0,0,1,-164.129,-63.5506)">
        <text x="478.336px" y="185.905px" style="font-family:'ArialMT', 'Arial', sans-serif;font-size:9.388px;">Int</text>
    </g>
    <g transform="matrix(1,0,0,1,-164.129,-63.5506)">
        <text x="380.779px" y="203.514px" style="font-family:'ArialMT', 'Arial', sans-serif;font-size:9.388px;">authtime</text>
    </g>
    <g transform="matrix(1,0,0,1,-164.129,-63.5506)">
        <text x="467.904px" y="204.101px" style="font-family:'ArialMT', 'Arial', sans-serif;font-size:9.388px;">Float</text>
    </g>
    <g transform="matrix(1,0,0,1,-164.129,-63.5506)">
        <text x="380.779px" y="221.709px" style="font-family:'ArialMT', 'Arial', sans-serif;font-size:9.388px;">detect</text>
    </g>
    <g transform="matrix(1,0,0,1,-164.129,-63.5506)">
        <text x="464.252px" y="222.296px" style="font-family:'ArialMT', 'Arial', sans-serif;font-size:9.388px;">String</text>
    </g>
    <g transform="matrix(1,0,0,1,-164.129,-63.5506)">
        <text x="380.779px" y="239.904px" style="font-family:'ArialMT', 'Arial', sans-serif;font-size:9.388px;">rtt</text>
    </g>
    <g transform="matrix(1,0,0,1,-164.129,-63.5506)">
        <text x="467.904px" y="240.491px" style="font-family:'ArialMT', 'Arial', sans-serif;font-size:9.388px;">Float</text>
    </g>
    <g transform="matrix(1,0,0,1,-164.129,-63.5506)">
        <text x="380.779px" y="258.099px" style="font-family:'ArialMT', 'Arial', sans-serif;font-size:9.388px;">unixtime</text>
    </g>
    <g transform="matrix(1,0,0,1,-164.129,-63.5506)">
        <text x="475.726px" y="258.099px" style="font-family:'ArialMT', 'Arial', sans-serif;font-size:9.388px;">Int!</text>
    </g>
    <g transform="matrix(1,0,0,1,-164.129,-63.5506)">
        <text x="380.779px" y="276.294px" style="font-family:'ArialMT', 'Arial', sans-serif;font-size:9.388px;">usec</text>
    </g>
    <g transform="matrix(1,0,0,1,-164.129,-63.5506)">
        <text x="475.726px" y="276.294px" style="font-family:'ArialMT', 'Arial', sans-serif;font-size:9.388px;">Int!</text>
    </g>
    <g transform="matrix(1,0,0,1,-164.129,-63.5506)">
        <text x="380.779px" y="294.49px" style="font-family:'ArialMT', 'Arial', sans-serif;font-size:9.388px;">kex</text>
    </g>
    <g transform="matrix(1,0,0,1,-164.129,-63.5506)">
        <text x="467.904px" y="295.077px" style="font-family:'ArialMT', 'Arial', sans-serif;font-size:9.388px;">Float</text>
    </g>
    <g transform="matrix(1,0,0,1,-164.129,-63.5506)">
        <text x="380.779px" y="312.685px" style="font-family:'ArialMT', 'Arial', sans-serif;font-size:9.388px;">newkey</text>
    </g>
    <g transform="matrix(1,0,0,1,-164.129,-63.5506)">
        <text x="467.904px" y="313.272px" style="font-family:'ArialMT', 'Arial', sans-serif;font-size:9.388px;">Float</text>
    </g>
    <g transform="matrix(1,0,0,1,-164.129,-63.5506)">
        <text x="380.779px" y="330.88px" style="font-family:'ArialMT', 'Arial', sans-serif;font-size:9.388px;">date</text>
    </g>
    <g transform="matrix(1,0,0,1,-164.129,-63.5506)">
        <text x="461.642px" y="330.88px" style="font-family:'ArialMT', 'Arial', sans-serif;font-size:9.388px;">String!</text>
        <text x="380.575px" y="349.078px" style="font-family:'ArialMT', 'Arial', sans-serif;font-size:9.388px;">organizationName	<tspan x="461.71px " y="349.078px ">S</tspan>tring!</text>
    </g>
    <g transform="matrix(1,0,0,1,-164.129,-63.5506)">
        <text x="380.779px" y="367.27px" style="font-family:'ArialMT', 'Arial', sans-serif;font-size:9.388px;">continentCode</text>
    </g>
    <g transform="matrix(1,0,0,1,-164.129,-63.5506)">
        <text x="464.252px" y="367.857px" style="font-family:'ArialMT', 'Arial', sans-serif;font-size:9.388px;">String</text>
    </g>
    <g transform="matrix(1,0,0,1,-164.129,-63.5506)">
        <text x="380.779px" y="385.466px" style="font-family:'ArialMT', 'Arial', sans-serif;font-size:9.388px;">country</text>
    </g>
    <g transform="matrix(1,0,0,1,-164.129,-63.5506)">
        <text x="464.252px" y="386.053px" style="font-family:'ArialMT', 'Arial', sans-serif;font-size:9.388px;">String</text>
    </g>
    <g transform="matrix(1,0,0,1,-164.129,-63.5506)">
        <text x="380.779px" y="403.661px" style="font-family:'ArialMT', 'Arial', sans-serif;font-size:9.388px;">countryCode</text>
    </g>
    <g transform="matrix(1,0,0,1,-164.129,-63.5506)">
        <text x="464.252px" y="404.248px" style="font-family:'ArialMT', 'Arial', sans-serif;font-size:9.388px;">String</text>
    </g>
    <g transform="matrix(1,0,0,1,-164.129,-63.5506)">
        <text x="380.779px" y="421.856px" style="font-family:'ArialMT', 'Arial', sans-serif;font-size:9.388px;">countryCode3</text>
    </g>
    <g transform="matrix(1,0,0,1,-164.129,-63.5506)">
        <text x="464.252px" y="422.443px" style="font-family:'ArialMT', 'Arial', sans-serif;font-size:9.388px;">String</text>
    </g>
    <g transform="matrix(1,0,0,1,-164.129,-63.5506)">
        <text x="380.779px" y="440.051px" style="font-family:'ArialMT', 'Arial', sans-serif;font-size:9.388px;">city</text>
    </g>
    <g transform="matrix(1,0,0,1,-164.129,-63.5506)">
        <text x="464.252px" y="440.638px" style="font-family:'ArialMT', 'Arial', sans-serif;font-size:9.388px;">String</text>
    </g>
    <g transform="matrix(1,0,0,1,-164.129,-63.5506)">
        <text x="380.779px" y="458.246px" style="font-family:'ArialMT', 'Arial', sans-serif;font-size:9.388px;">longitude</text>
    </g>
    <g transform="matrix(1,0,0,1,-164.129,-63.5506)">
        <text x="467.904px" y="458.833px" style="font-family:'ArialMT', 'Arial', sans-serif;font-size:9.388px;">Float</text>
    </g>
    <g transform="matrix(1,0,0,1,-164.129,-63.5506)">
        <text x="380.779px" y="476.442px" style="font-family:'ArialMT', 'Arial', sans-serif;font-size:9.388px;">latitude</text>
    </g>
    <g transform="matrix(1,0,0,1,-164.129,-63.5506)">
        <text x="467.904px" y="477.028px" style="font-family:'ArialMT', 'Arial', sans-serif;font-size:9.388px;">Float</text>
    </g>
    <g transform="matrix(1,0,0,1,-164.129,-63.5506)">
        <text x="380.779px" y="494.637px" style="font-family:'ArialMT', 'Arial', sans-serif;font-size:9.388px;">asn</text>
    </g>
    <g transform="matrix(1,0,0,1,-164.129,-63.5506)">
        <text x="475.726px" y="494.637px" style="font-family:'ArialMT', 'Arial', sans-serif;font-size:9.388px;">Int!</text>
    </g>
</svg>
